<svg xmlns="http://www.w3.org/2000/svg" viewBox="0 0 24 24">
  <defs>
    <linearGradient id="ballShade" x1="0%" y1="0%" x2="100%" y2="100%">
      <stop offset="0%" stop-color="#fafafa"/>
      <stop offset="100%" stop-color="#f0f0f0"/>
    </linearGradient>
  </defs>
  <!-- ?? -->
  <circle cx="12" cy="12" r="11" fill="url(#ballShade)" stroke="#334155" stroke-width="1"/>
  <!-- ???????????? -->
  <path d="M12 1.2 C18 4 23 12 23 12 C23 12 18 20 12 22.8 C6 20 1 12 1 12 C1 12 6 4 12 1.2 Z" fill="none" stroke="#334155" stroke-width="0.9" stroke-linecap="round"/>
  <path d="M12 1.2 C6 4 1 12 1 12 C1 12 6 20 12 22.8 C18 20 23 12 23 12 C23 12 18 4 12 1.2 Z" fill="none" stroke="#334155" stroke-width="0.9" stroke-linecap="round"/>
  <ellipse cx="12" cy="12" rx="11" ry="4.5" fill="none" stroke="#334155" stroke-width="0.9"/>
</svg>
